<svg width="580" height="590" viewBox="0 0 580 590" fill="none" xmlns="http://www.w3.org/2000/svg">
<path d="M557.391 554.577C559.267 552.701 562.308 552.701 564.184 554.577L576.604 566.997C578.48 568.873 578.48 571.914 576.604 573.79L564.184 586.21C562.308 588.086 559.267 588.086 557.391 586.21L544.971 573.79C543.095 571.914 543.095 568.873 544.971 566.997L557.391 554.577Z" fill="#ED1C24"/>
<path d="M104.678 76.647C106.554 74.7712 109.595 74.7712 111.471 76.647L123.891 89.0673C125.767 90.9431 125.767 93.9844 123.891 95.8602L111.471 108.281C109.595 110.156 106.554 110.156 104.678 108.281L92.2577 95.8602C90.3819 93.9844 90.3819 90.9431 92.2577 89.0673L104.678 76.647Z" fill="#FF9B00"/>
<path d="M15.8168 241.438C17.6926 239.562 20.7339 239.562 22.6097 241.438L35.03 253.858C36.9059 255.734 36.9059 258.775 35.03 260.651L22.6097 273.072C20.7339 274.947 17.6926 274.947 15.8168 273.072L3.39646 260.651C1.52065 258.775 1.52064 255.734 3.39646 253.858L15.8168 241.438Z" fill="#0000FF"/>
<path d="M502.153 3.39646C504.029 1.52065 507.07 1.52064 508.946 3.39646L521.366 15.8168C523.242 17.6926 523.242 20.7339 521.366 22.6097L508.946 35.03C507.07 36.9059 504.029 36.9059 502.153 35.03L489.732 22.6097C487.857 20.7339 487.857 17.6926 489.732 15.8168L502.153 3.39646Z" fill="#FFC947"/>
</svg>
